<?xml version="1.0" encoding="utf-8"?>
<!-- Generator: Adobe Illustrator 21.0.0, SVG Export Plug-In . SVG Version: 6.00 Build 0)  -->
<svg version="1.1" id="图层_1" xmlns="http://www.w3.org/2000/svg" xmlns:xlink="http://www.w3.org/1999/xlink" x="0px" y="0px"
	 viewBox="0 0 200 200" style="enable-background:new 0 0 200 200;" xml:space="preserve">
<style type="text/css">
	.st0{fill:#FFFFFF;}
</style>
<path class="st0" d="M138.5,47.4v11V152c0,10.5-8.5,19.1-19.1,19.1l-71.8,0c-10.5,0-19.1-8.5-19.1-19.1V47.2
	c0-10.5,8.5-19.1,19.1-19.1h71.8c10.5,0,19.1,8.5,19.1,19.1L138.5,47.4L138.5,47.4L138.5,47.4L138.5,47.4z M138.5,179.1v2.9h22
	c12.1,0,22-9.8,22-22V72.1c0-12.1-9.8-22-22-22h-11v-11c0-12.1-9.8-22-22-22l-87.9,0c-12.1,0-22,9.8-22,22V160c0,12.1,9.8,22,22,22
	h87.9C131.5,182,135.2,180.9,138.5,179.1L138.5,179.1L138.5,179.1L138.5,179.1z M171.4,152c0,10.5-8.5,19.1-19.1,19.1h-5.9
	c1.9-3.2,2.9-7,2.9-11l0-98.9h2.9c10.5,0,19.1,8.5,19.1,19.1v0.2L171.4,152L171.4,152L171.4,152L171.4,152z M50.5,135.3
	c0,3,2.5,2.7,5.5,2.7h55c3,0,5.5,0.3,5.5-2.7c0-3-2.5-8.2-5.5-8.2H56C53,127,50.5,132.3,50.5,135.3L50.5,135.3L50.5,135.3
	L50.5,135.3z M50.5,102.3c0,3,2.5,2.7,5.5,2.7l55,0c3,0,5.5,0.3,5.5-2.7c0-3-2.5-8.2-5.5-8.2l-55,0C53,94.1,50.5,99.3,50.5,102.3
	L50.5,102.3L50.5,102.3L50.5,102.3z M50.5,69.3c0,3,2.5,2.7,5.5,2.7h55c3,0,5.5,0.3,5.5-2.7c0-3-2.5-8.2-5.5-8.2H56
	C53,61.1,50.5,66.3,50.5,69.3L50.5,69.3L50.5,69.3L50.5,69.3z"/>
</svg>
