<?xml version="1.0" encoding="utf-8"?>
<!-- Generator: Adobe Illustrator 21.0.0, SVG Export Plug-In . SVG Version: 6.00 Build 0)  -->
<svg version="1.1" id="图层_1" xmlns="http://www.w3.org/2000/svg" xmlns:xlink="http://www.w3.org/1999/xlink" x="0px" y="0px"
	 viewBox="0 0 200 200" style="enable-background:new 0 0 200 200;" xml:space="preserve">
<style type="text/css">
	.st0{fill:#FFFFFF;}
</style>
<path class="st0" d="M78,168.3H55.5c-2.8,0-5.1-2.3-5.1-5.1c0-2.8,2.3-5.1,5.1-5.1H78c2.8,0,5.1,2.3,5.1,5.1
	C83.1,166,80.8,168.3,78,168.3z"/>
<path class="st0" d="M67.4,147.1c-29.9,0-54.3-24.3-54.3-54.3l0-64.9c0-2.8,2.3-5.1,5.1-5.1s5.1,2.3,5.1,5.1v64.9
	c0,24.3,19.8,44,44,44c24.3,0,44-19.8,44-44V81.3c0-11.8,9.5-21.3,21.3-21.3c11.8,0,21.3,9.6,21.3,21.3v30.5c0,2.8-2.3,5.1-5.1,5.1
	s-5.1-2.3-5.1-5.1V81.3c0-6.1-5-11.1-11.1-11.1c-6.1,0-11,5-11,11.1v11.5C121.6,122.7,97.3,147.1,67.4,147.1z"/>
<path class="st0" d="M181.8,116.9c-2.8,0-5.1-2.3-5.1-5.1V81.3c0-24.3-19.8-44-44-44c-24.2,0-44,19.8-44,44v11.5
	c0,11.8-9.6,21.3-21.3,21.3c-11.8,0-21.3-9.6-21.3-21.3l0-64.9c0-2.8,2.3-5.1,5.1-5.1c2.8,0,5.1,2.3,5.1,5.1v64.9
	c0,6.1,5,11.1,11.1,11.1c6.1,0,11.1-5,11.1-11.1V81.3c0-29.9,24.3-54.3,54.2-54.3c29.9,0,54.3,24.4,54.3,54.3v30.5
	C186.9,114.6,184.7,116.9,181.8,116.9z"/>
</svg>
