<?xml version="1.0" encoding="utf-8"?>
<!-- Generator: Adobe Illustrator 21.0.0, SVG Export Plug-In . SVG Version: 6.00 Build 0)  -->
<svg version="1.1" id="图层_1" xmlns="http://www.w3.org/2000/svg" xmlns:xlink="http://www.w3.org/1999/xlink" x="0px" y="0px"
	 viewBox="0 0 200 200" style="enable-background:new 0 0 200 200;" xml:space="preserve">
<style type="text/css">
	.st0{fill:#FFFFFF;}
</style>
<path class="st0" d="M176.2,23.8C160.7,8.4,131,11.8,100,30C69,11.8,39.3,8.4,23.8,23.8S11.8,69,30,100c-18.2,31-21.6,60.7-6.2,76.2
	c6.6,6.6,15.9,9.8,26.8,9.8c14.4,0,31.7-5.6,49.4-16c17.8,10.4,35,16,49.4,16c10.9,0,20.2-3.2,26.8-9.8
	c15.4-15.4,12.1-45.1-6.2-76.2C188.2,69,191.6,39.3,176.2,23.8z M128.1,30.1c7.8-2.7,15-4.1,21.3-4.1c7.8,0,14.2,2.1,18.3,6.3
	c7.5,7.5,8.3,22,2.2,39.6c-1.8,5.4-4.3,11-7.3,16.6c-6.6-9.4-14.4-18.7-23.4-27.8c-9-9-18.4-16.9-27.8-23.4
	C117,34.4,122.6,31.9,128.1,30.1L128.1,30.1z M155.8,100c-6.8,10.5-15.3,21-25.1,30.8c-9.8,9.8-20.2,18.3-30.8,25.1
	c-10.5-6.8-21-15.3-30.8-25.1C59.4,121,50.8,110.6,44,100c6.8-10.5,15.3-21,25.1-30.8c9.8-9.8,20.2-18.3,30.8-25.1
	c10.5,6.8,21,15.3,30.8,25.1S149,89.5,155.8,100z M30.1,71.9c-6.1-17.6-5.3-32.1,2.2-39.6c4.2-4.2,10.5-6.3,18.3-6.3
	c6.2,0,13.4,1.4,21.3,4.1c5.4,1.8,11,4.3,16.6,7.3c-9.4,6.6-18.7,14.4-27.8,23.4c-9,9-16.9,18.4-23.4,27.8
	C34.4,83,31.9,77.4,30.1,71.9z M71.9,169.9c-17.7,6.1-32.1,5.3-39.6-2.2s-8.3-22-2.2-39.6c1.8-5.4,4.3-11,7.3-16.6
	c6.6,9.4,14.4,18.7,23.4,27.8c9,9,18.4,16.9,27.8,23.4C83,165.6,77.4,168.1,71.9,169.9L71.9,169.9z M169.9,128.1
	c6.1,17.7,5.3,32.1-2.2,39.6c-7.5,7.5-22,8.3-39.6,2.2c-5.4-1.8-11-4.3-16.6-7.3c9.4-6.6,18.7-14.4,27.8-23.4
	c9-9,16.9-18.4,23.4-27.8C165.6,117,168.1,122.6,169.9,128.1L169.9,128.1z"/>
<path class="st0" d="M86.4,100c0,7.5,6.1,13.6,13.6,13.6c7.5,0,13.6-6.1,13.6-13.6c0,0,0,0,0,0c0-7.5-6.1-13.6-13.6-13.6
	C92.5,86.4,86.4,92.5,86.4,100z"/>
</svg>
