<?xml version="1.0" encoding="utf-8"?>
<!-- Generator: Adobe Illustrator 21.0.0, SVG Export Plug-In . SVG Version: 6.00 Build 0)  -->
<svg version="1.1" id="图层_1" xmlns="http://www.w3.org/2000/svg" xmlns:xlink="http://www.w3.org/1999/xlink" x="0px" y="0px"
	 viewBox="0 0 200 200" style="enable-background:new 0 0 200 200;" xml:space="preserve">
<style type="text/css">
	.st0{fill:#FFFFFF;}
</style>
<path class="st0" d="M176,18H24c-7.7,0-14,6.3-14,14v136c0,7.7,6.3,14,14,14h152c7.7,0,14-6.3,14-14V32C190,24.3,183.7,18,176,18z
	 M22,80.4h72v38.8H22V80.4z M68,68.4V30h68.8v38.4C136.8,68.4,68,68.4,68,68.4z M136.8,131.2V170H68v-38.8H136.8z M106,119.2V80.4
	h72v38.8H106z M178,32v36.4h-29.2V30H176C177.1,30,178,30.9,178,32L178,32z M24,30h32v38.4H22V32C22,30.9,22.9,30,24,30z M22,168
	v-36.8h34V170H24C22.9,170,22,169.1,22,168z M176,170h-27.2v-38.8H178V168C178,169.1,177.1,170,176,170L176,170z"/>
</svg>
