<?xml version="1.0" encoding="utf-8"?>
<!-- Generator: Adobe Illustrator 21.0.0, SVG Export Plug-In . SVG Version: 6.00 Build 0)  -->
<svg version="1.1" id="图层_1" xmlns="http://www.w3.org/2000/svg" xmlns:xlink="http://www.w3.org/1999/xlink" x="0px" y="0px"
	 viewBox="0 0 200 200" style="enable-background:new 0 0 200 200;" xml:space="preserve">
<style type="text/css">
	.st0{fill:#FFFFFF;}
</style>
<path class="st0" d="M171.2,74.4c-9.2-3.8-21.2-6-33.9-6s-24.8,2.2-33.9,6C92.6,79,86.6,85.7,86.6,93.3v65.9
	c0,7.6,5.9,14.3,16.8,18.9c9.2,3.8,21.2,6,33.9,6s24.8-2.2,33.9-6c10.8-4.6,16.8-11.3,16.8-18.9V93.3C188,85.7,182,79,171.2,74.4z
	 M176,131.8c0,3.5-13.2,11.9-38.7,11.9s-38.7-8.3-38.7-11.9v-13.2c9.8,5.2,24.3,7.9,38.7,7.9s29-2.7,38.7-7.9V131.8z M98.6,93.3
	c0-4.3,13.7-12.8,38.7-12.8S176,89,176,93.3v9.4c0,3.5-13.2,11.9-38.7,11.9s-38.7-8.3-38.7-11.9C98.6,102.7,98.6,93.3,98.6,93.3z
	 M137.3,172c-25,0-38.7-8.5-38.7-12.8v-11.4c9.8,5.2,24.3,7.9,38.7,7.9s29-2.7,38.7-7.9v11.4C176,163.5,162.3,172,137.3,172z"/>
<path class="st0" d="M72,172H26c-1.1,0-2-0.9-2-2V30c0-1.1,0.9-2,2-2h90c1.1,0,2,0.9,2,2v24.8c0,3.3,2.7,6,6,6c3.3,0,6-2.7,6-6V30
	c0-7.7-6.3-14-14-14H26c-7.7,0-14,6.3-14,14v140c0,7.7,6.3,14,14,14h46c3.3,0,6-2.7,6-6C78,174.7,75.3,172,72,172z"/>
<path class="st0" d="M110.3,53.2c0-3.3-2.7-6-6-6H38.1c-3.3,0-6,2.7-6,6c0,3.3,2.7,6,6,6h66.2C107.6,59.2,110.3,56.5,110.3,53.2z
	 M38.1,80c-3.3,0-6,2.7-6,6c0,3.3,2.7,6,6,6h32.6c3.3,0,6-2.7,6-6c0-3.3-2.7-6-6-6H38.1z"/>
</svg>
