<?xml version="1.0" encoding="utf-8"?>
<!-- Generator: Adobe Illustrator 21.0.0, SVG Export Plug-In . SVG Version: 6.00 Build 0)  -->
<svg version="1.1" id="图层_1" xmlns="http://www.w3.org/2000/svg" xmlns:xlink="http://www.w3.org/1999/xlink" x="0px" y="0px"
	 viewBox="0 0 200 200" style="enable-background:new 0 0 200 200;" xml:space="preserve">
<style type="text/css">
	.st0{fill:#FFFFFF;}
</style>
<path class="st0" d="M168.5,23.7c-2.9-1-70.1-24.2-106.2,0.6C45.4,36,33.9,52.5,30,70.9c-3.6,16.9-0.6,33.9,8.3,46.7
	c0.2,0.2,0.4,0.5,0.6,0.7c-8.6,16.2-13.8,37-10.4,63.6c0.4,3,3,5.3,5.9,5.3c0.2,0,0.5,0,0.7-0.1c3.3-0.4,5.6-3.4,5.2-6.7
	c-4.2-33.8,5.9-61.6,30.2-82.7c18.4-16,38.5-22,38.7-22.1c3.2-1,5-4.2,4.1-7.4s-4.2-5-7.4-4.1c-0.9,0.2-22.5,6.6-43,24.2
	c-5.8,5-11.8,11.1-17.1,18.6c-5.2-9.6-6.7-21.7-4.2-33.7c3.3-15.4,13-29.2,27.3-39.1c26.4-18.2,76.3-5.1,91.2-0.6
	c-1.1,15.4-6.6,66.8-33,85c-16.8,11.6-35.7,15.1-53.2,10c-3.2-1-6.5,0.9-7.4,4.1s0.9,6.5,4.1,7.4c6.2,1.8,12.6,2.7,19.1,2.7
	c15.1,0,30.6-4.9,44.3-14.3c36.1-24.9,38.4-96,38.5-99C172.6,26.9,171,24.5,168.5,23.7z"/>
</svg>
