<?xml version="1.0" encoding="utf-8"?>
<!-- Generator: Adobe Illustrator 21.0.0, SVG Export Plug-In . SVG Version: 6.00 Build 0)  -->
<svg version="1.1" id="图层_1" xmlns="http://www.w3.org/2000/svg" xmlns:xlink="http://www.w3.org/1999/xlink" x="0px" y="0px"
	 viewBox="0 0 200 200" style="enable-background:new 0 0 200 200;" xml:space="preserve">
<style type="text/css">
	.st0{fill:#FFFFFF;}
</style>
<path class="st0" d="M176,18H24c-7.7,0-14,6.3-14,14v136c0,7.7,6.3,14,14,14h152c7.7,0,14-6.3,14-14V32C190,24.3,183.7,18,176,18z
	 M24,30h152c1.1,0,2,0.9,2,2v34H22V32C22,30.9,22.9,30,24,30z M176,170H24c-1.1,0-2-0.9-2-2V78h156v90C178,169.1,177.1,170,176,170
	L176,170z"/>
<path class="st0" d="M40,54h8c3.3,0,6-2.7,6-6c0-3.3-2.7-6-6-6h-8c-3.3,0-6,2.7-6,6S36.7,54,40,54z M72,54h8c3.3,0,6-2.7,6-6
	c0-3.3-2.7-6-6-6h-8c-3.3,0-6,2.7-6,6S68.7,54,72,54z M141.2,101.6H58.8c-3.3,0-6,2.7-6,6c0,3.3,2.7,6,6,6h82.4c3.3,0,6-2.7,6-6
	C147.2,104.3,144.5,101.6,141.2,101.6z M111.8,130.8h-53c-3.3,0-6,2.7-6,6s2.7,6,6,6h53c3.3,0,6-2.7,6-6S115,130.8,111.8,130.8z"/>
</svg>
